<svg xmlns="http://www.w3.org/2000/svg" width="800" height="600" viewBox="0 0 800 600">
  <defs>
    <linearGradient id="bg" x1="0%" y1="0%" x2="100%" y2="100%">
      <stop offset="0%" style="stop-color:#f7eee6"/>
      <stop offset="100%" style="stop-color:#ead6c7"/>
    </linearGradient>
  </defs>
  <rect width="800" height="600" fill="url(#bg)" rx="20"/>
  <!-- Bowl -->
  <ellipse cx="400" cy="400" rx="200" ry="60" fill="#fff8f1" stroke="#dac8b9" stroke-width="3"/>
  <ellipse cx="400" cy="400" rx="200" ry="60" fill="#fff8f1" stroke="#dac8b9" stroke-width="3"/>
  <path d="M200 400 Q200 300 400 300 Q600 300 600 400" fill="#fff8f1" stroke="#dac8b9" stroke-width="3"/>
  <!-- Lettuce -->
  <ellipse cx="350" cy="370" rx="40" ry="25" fill="#6b9e6b" transform="rotate(-15 350 370)"/>
  <ellipse cx="420" cy="360" rx="35" ry="20" fill="#5a8f5a" transform="rotate(10 420 360)"/>
  <ellipse cx="380" cy="390" rx="30" ry="18" fill="#7aae7a" transform="rotate(-5 380 390)"/>
  <ellipse cx="450" cy="380" rx="25" ry="15" fill="#6b9e6b" transform="rotate(20 450 380)"/>
  <!-- Croutons -->
  <rect x="320" y="385" width="18" height="18" rx="3" fill="#c88735" transform="rotate(15 329 394)"/>
  <rect x="370" y="395" width="16" height="16" rx="3" fill="#b46a46" transform="rotate(-10 378 403)"/>
  <rect x="430" y="390" width="15" height="15" rx="3" fill="#c88735" transform="rotate(25 437 397)"/>
  <rect x="390" y="380" width="14" height="14" rx="3" fill="#b46a46" transform="rotate(-20 397 387)"/>
  <!-- Cherry tomatoes -->
  <circle cx="340" cy="395" r="10" fill="#e05050"/>
  <circle cx="460" cy="388" r="9" fill="#d04040"/>
  <!-- Parmesan -->
  <path d="M360 375 L370 370 L375 378 Z" fill="#f5e6c8"/>
  <path d="M410 372 L420 368 L422 376 Z" fill="#f5e6c8"/>
  <!-- Title text -->
  <text x="400" y="500" text-anchor="middle" font-family="Georgia, serif" font-size="28" fill="#2b211c">Салат «Цезарь»</text>
  <text x="400" y="535" text-anchor="middle" font-family="sans-serif" font-size="16" fill="#5a4b43">с хрустящими гренками</text>
</svg>
